<svg xmlns="http://www.w3.org/2000/svg" width="640" height="360" viewBox="0 0 640 360">
<rect width="100%" height="100%" fill="#f7f8f4"/>
<line x1="42" y1="318" x2="598" y2="318" stroke="#17201b"/>
<line x1="42" y1="42" x2="42" y2="318" stroke="#17201b"/>
<text x="320.0" y="26" text-anchor="middle" font-family="Arial" font-size="18">EGNN synthetic training curve</text>
<polyline points="42.0,42.0 46.7,44.0 51.3,46.0 56.0,48.1 60.7,50.2 65.4,52.4 70.0,54.7 74.7,57.1 79.4,59.7 84.1,62.3 88.7,65.1 93.4,67.8 98.1,70.6 102.7,73.3 107.4,76.0 112.1,78.5 116.8,80.8 121.4,82.9 126.1,84.8 130.8,86.5 135.4,88.1 140.1,89.7 144.8,91.2 149.5,92.8 154.1,94.5 158.8,96.4 163.5,98.6 168.2,101.0 172.8,103.7 177.5,106.7 182.2,109.9 186.8,113.2 191.5,116.6 196.2,119.9 200.9,123.0 205.5,125.8 210.2,128.1 214.9,130.0 219.5,131.3 224.2,132.3 228.9,132.9 233.6,133.3 238.2,133.7 242.9,134.3 247.6,135.2 252.3,136.4 256.9,138.2 261.6,140.6 266.3,143.5 270.9,147.0 275.6,151.1 280.3,155.5 285.0,160.2 289.6,164.9 294.3,169.2 299.0,172.8 303.6,175.5 308.3,176.9 313.0,177.2 317.7,176.4 322.3,174.9 327.0,173.2 331.7,171.4 336.4,170.0 341.0,169.3 345.7,169.3 350.4,170.3 355.0,172.4 359.7,175.5 364.4,179.8 369.1,185.2 373.7,191.5 378.4,198.6 383.1,206.1 387.7,213.2 392.4,219.1 397.1,222.8 401.8,223.7 406.4,221.8 411.1,217.7 415.8,212.3 420.5,206.7 425.1,201.6 429.8,197.3 434.5,194.2 439.1,192.6 443.8,192.4 448.5,193.8 453.2,196.9 457.8,201.8 462.5,208.4 467.2,216.9 471.8,227.2 476.5,239.0 481.2,251.4 485.9,262.6 490.5,269.9 495.2,270.6 499.9,264.6 504.6,254.5 509.2,243.0 513.9,232.2 518.6,222.9 523.2,215.4 527.9,210.0 532.6,206.5 537.3,205.1 541.9,205.7 546.6,208.4 551.3,213.4 555.9,220.6 560.6,230.5 565.3,243.3 570.0,259.1 574.6,278.1 579.3,298.5 584.0,315.0 588.7,318.0 593.3,305.3 598.0,285.7" fill="none" stroke="#376d4a" stroke-width="3"/>
</svg>
